<?xml version="1.0" encoding="utf-8"?>
<!-- Generator: Adobe Illustrator 27.6.1, SVG Export Plug-In . SVG Version: 6.00 Build 0)  -->
<svg version="1.1" id="Layer_1" xmlns="http://www.w3.org/2000/svg" xmlns:xlink="http://www.w3.org/1999/xlink" width="30" height="30"
	 viewBox="0 0 18.5 18.5" style="enable-background:new 0 0 18.5 18.5;" xml:space="preserve">
<style type="text/css">
	.st0{fill:#070707;}
</style>
<path id="close_menu_icon" transform="translate(-13.939 -55.681)" class="st0" d="M32.2,73.9c0.3-0.3,0.3-0.8,0-1.1l-17-17
	c-0.3-0.3-0.8-0.3-1.1,0s-0.3,0.8,0,1.1l17,17c0.1,0.1,0.3,0.2,0.5,0.2S32,74.1,32.2,73.9z M15.2,73.9l17-17c0.3-0.3,0.3-0.8,0-1.1
	s-0.8-0.3-1.1,0l-17,17c-0.3,0.3-0.3,0.8,0,1.1c0.1,0.1,0.3,0.2,0.5,0.2S15.1,74.1,15.2,73.9z"/>
</svg>
