<svg xmlns="http://www.w3.org/2000/svg" width="302.039" height="70" viewBox="0 0 302.039 70">
  <g id="Espro_Logo" data-name="Espro Logo" transform="translate(-132.052 -143.893)">
    <path id="Path_2" data-name="Path 2" d="M174.364,145.5h-40.6a1.619,1.619,0,0,0-1.712,1.807V210.9a1.62,1.62,0,0,0,1.712,1.81h40.6a1.618,1.618,0,0,0,1.709-1.81v-4.675a1.619,1.619,0,0,0-1.709-1.81H141.345V182.78h27.147a1.615,1.615,0,0,0,1.708-1.8V176.3a1.618,1.618,0,0,0-1.708-1.81H141.345V153.795h33.019a1.617,1.617,0,0,0,1.709-1.807V147.31A1.617,1.617,0,0,0,174.364,145.5Z" transform="translate(0 -0.211)" fill="#221f20"/>
    <path id="Path_3" data-name="Path 3" d="M226.412,177.127l-14.678-4.676c-7.021-2.273-9.885-5.283-9.885-10.386,0-6.1,5.293-9.882,13.813-9.882,8.265,0,13.78,3.826,15.947,11.066a1.866,1.866,0,0,0,1.84,1.557h5.283a1.664,1.664,0,0,0,1.311-.553,1.923,1.923,0,0,0,.382-1.608c-2.267-11.918-11.293-18.754-24.763-18.754-13.817,0-23.1,7.49-23.1,18.638,0,8.98,4.863,14.91,14.867,18.132l14.69,4.678h0c6.857,2.181,9.784,5.287,9.784,10.385,0,6.186-5.477,9.878-14.651,9.878s-14.922-3.723-17.115-11.059a1.855,1.855,0,0,0-1.843-1.561H193.01a1.658,1.658,0,0,0-1.3.547,1.931,1.931,0,0,0-.391,1.606c2.3,12.1,11.508,18.758,25.934,18.758,14.543,0,23.94-7.314,23.94-18.634C241.191,186.333,236.218,180.233,226.412,177.127Z" transform="translate(-7.56 0)" fill="#221f20"/>
    <path id="Path_4" data-name="Path 4" d="M289.043,145.5H264.715a1.617,1.617,0,0,0-1.709,1.807V210.9a1.618,1.618,0,0,0,1.709,1.81h5.873a1.618,1.618,0,0,0,1.708-1.81V191.2h16.748c14.629,0,22.686-8.113,22.686-22.845S303.672,145.5,289.043,145.5Zm0,37.4H272.3v-29.11h16.748c8.637,0,13.394,5.17,13.394,14.557S297.681,182.9,289.043,182.9Z" transform="translate(-16.713 -0.211)" fill="#221f20"/>
    <path id="Path_5" data-name="Path 5" d="M433.089,143.9a35,35,0,1,0,34.889,35A34.984,34.984,0,0,0,433.089,143.9Zm0,60.9a25.9,25.9,0,1,1,25.816-25.9A25.886,25.886,0,0,1,433.089,204.79Z" transform="translate(-33.888 0)" fill="#221f20"/>
    <path id="Path_6" data-name="Path 6" d="M373.568,193.167c-.9-1.57-3.406-5.9-5.177-8.827,8.066-2.957,12.844-9.564,12.844-17.866,0-13.132-8.479-20.972-22.682-20.972H335.07a1.62,1.62,0,0,0-1.716,1.807V210.9a1.622,1.622,0,0,0,1.716,1.81h5.865a1.619,1.619,0,0,0,1.709-1.81v-23.44l16.6,0,4.015,6.583,10.071,17.3a2.352,2.352,0,0,0,2,1.363h6.881a1.505,1.505,0,0,0,1.42-2.443Zm-1.622-26.693c0,7.947-5.007,12.692-13.393,12.692H342.643V153.79h15.909C366.939,153.79,371.946,158.532,371.946,166.475Z" transform="translate(-25.686 -0.211)" fill="#221f20"/>
  </g>
</svg>
