<?xml version="1.0" encoding="utf-8"?>
<!-- Generator: Adobe Illustrator 27.6.1, SVG Export Plug-In . SVG Version: 6.00 Build 0)  -->
<svg version="1.1" id="Layer_1" xmlns="http://www.w3.org/2000/svg" xmlns:xlink="http://www.w3.org/1999/xlink" width="30" height="30"
	 viewBox="0 0 25.5 25.5" style="enable-background:new 0 0 25.5 25.5;" xml:space="preserve">
<style type="text/css">
	.st0{fill:#050505;}
</style>
<path id="Menu_icon" transform="translate(-14.25 -55.75)" class="st0" d="M26.1,60.5H15c-0.4,0-0.8-0.3-0.8-0.8S14.6,59,15,59h11.1
	c0.4,0,0.8,0.3,0.8,0.8S26.5,60.5,26.1,60.5z M39.8,68.5c0-0.4-0.3-0.8-0.8-0.8H15c-0.4,0-0.8,0.3-0.8,0.8s0.3,0.8,0.8,0.8h24
	C39.4,69.3,39.8,68.9,39.8,68.5z M32.2,77.2c0-0.4-0.3-0.8-0.8-0.8H15c-0.4,0-0.8,0.3-0.8,0.8S14.6,78,15,78h16.4
	C31.8,78,32.2,77.6,32.2,77.2z"/>
</svg>
